<svg id="Layer_1" data-name="Layer 1" xmlns="http://www.w3.org/2000/svg" viewBox="0 0 279.13 269.67"><defs><style>.cls-1{fill:#636466;}.cls-2{font-size:10px;fill:#fff;font-family:OpenSans-Light, Open Sans;}.cls-3{fill:#231f20;}.cls-4{fill:#9d9fa2;}.cls-5{fill:none;stroke:#231f20;stroke-miterlimit:10;stroke-width:1px;}</style></defs><title>flowchart-1</title><rect class="cls-1" x="1.73" y="213.67" width="85.87" height="56"/><rect class="cls-1" x="96.46" y="213.67" width="85.87" height="56"/><rect class="cls-1" x="191.53" y="213.67" width="85.87" height="56"/><text class="cls-2" transform="translate(33.33 238.93)">Read <tspan x="-17.82" y="12">Flowchart #2</tspan></text><text class="cls-2" transform="translate(128.06 238.93)">Read <tspan x="-17.82" y="12">Flowchart #3</tspan></text><text class="cls-2" transform="translate(223.12 238.93)">Read <tspan x="-17.82" y="12">Flowchart #4</tspan></text><rect class="cls-3" x="1.73" y="95" width="85.87" height="56"/><rect class="cls-3" x="96.46" y="95" width="85.87" height="56"/><rect class="cls-3" x="191.53" y="95" width="85.87" height="56"/><text class="cls-2" transform="translate(18.29 126.27)">In a Device?</text><text class="cls-2" transform="translate(98.42 126.27)">Firmware Update?</text><text class="cls-2" transform="translate(205.51 126.27)">Over the Air?</text><rect class="cls-4" x="72.36" width="134.08" height="32.67"/><text class="cls-2" transform="translate(80.46 20.27)">What Type of Distribution?</text><line class="cls-5" x1="44.67" y1="155.67" x2="44.67" y2="207.41"/><polygon class="cls-3" points="42.17 206.68 44.67 211 47.16 206.68 42.17 206.68"/><line class="cls-5" x1="139.4" y1="155.67" x2="139.4" y2="207.41"/><polygon class="cls-3" points="136.9 206.68 139.4 211 141.89 206.68 136.9 206.68"/><line class="cls-5" x1="139.4" y1="36.67" x2="139.4" y2="88.41"/><polygon class="cls-3" points="136.9 87.68 139.4 92 141.89 87.68 136.9 87.68"/><line class="cls-5" x1="234.46" y1="155.67" x2="234.46" y2="207.41"/><polygon class="cls-3" points="231.97 206.68 234.46 211 236.96 206.68 231.97 206.68"/></svg>