<svg id="Layer_1" data-name="Layer 1" xmlns="http://www.w3.org/2000/svg" viewBox="0 0 276 416.33"><defs><style>.cls-1{fill:#9d9fa2;}.cls-2{font-size:10px;}.cls-2,.cls-6{fill:#fff;font-family:OpenSans-Light, Open Sans;}.cls-3{fill:#636466;}.cls-4{fill:none;stroke:#231f20;stroke-miterlimit:10;stroke-width:1px;}.cls-5{fill:#231f20;}.cls-6{font-size:6.11px;}</style></defs><title>flowchart-0</title><rect class="cls-1" x="167.67" y="49.67" width="108.33" height="71.33"/><text class="cls-2" transform="translate(177.74 70.6)">Will code generated <tspan x="-1.75" y="12">by the Free Software </tspan><tspan x="3.92" y="24">end up in the final </tspan><tspan x="24.58" y="36">product?</tspan></text><rect class="cls-1" y="88.67" width="108.33" height="64.67"/><text class="cls-2" transform="translate(11.5 113.27)">Will the product be <tspan x="0.12" y="12">distributed outside </tspan><tspan x="-1.72" y="24">of the organisation?</tspan></text><rect class="cls-1" y="264.67" width="108.33" height="64.67"/><text class="cls-2" transform="translate(9.59 289.27)">Is the Free Software <tspan x="8.65" y="12">on the ‘Rejected </tspan><tspan x="14.4" y="24">Software’ list?</tspan></text><rect class="cls-3" y="351.67" width="108.33" height="64.67"/><text class="cls-2" transform="translate(12.81 376.27)">This Free Software <tspan x="3.83" y="12">may not be used </tspan><tspan x="6.47" y="24">for this product</tspan></text><rect class="cls-3" x="118.67" y="164.33" width="99.67" height="44"/><text class="cls-2" transform="translate(128.99 184.93)">Label for “Internal <tspan x="19.71" y="12">use only”</tspan></text><rect class="cls-3" x="167.67" y="251.33" width="108.33" height="56"/><text class="cls-2" transform="translate(180.48 270.27)">This Free Software <tspan x="5" y="12">may be used for </tspan><tspan x="14.14" y="24">this product</tspan></text><rect class="cls-3" x="167.67" y="360.33" width="108.33" height="56"/><text class="cls-2" transform="translate(180.72 379.27)">Please contact the <tspan x="-3.1" y="12">legal department to </tspan><tspan x="5.96" y="24">obtain approval</tspan></text><rect class="cls-1" y="178" width="108.33" height="64.67"/><text class="cls-2" transform="translate(9.59 202.6)">Is the Free Software <tspan x="6.17" y="12">on the ‘Approved </tspan><tspan x="14.4" y="24">Software’ list?</tspan></text><text y="-34.67"></text><text y="-34.67"></text><text y="-34.67"></text><text y="-34.67"></text><polyline class="cls-4" points="111 30 225.67 30 225.67 43.41"/><polygon class="cls-5" points="223.17 42.68 225.67 47 228.16 42.68 223.17 42.68"/><line class="cls-4" x1="51.5" y1="67.83" x2="51.5" y2="83.24"/><polygon class="cls-5" points="49.01 82.51 51.5 86.83 53.99 82.51 49.01 82.51"/><line class="cls-4" x1="51.5" y1="156.83" x2="51.5" y2="172.24"/><polygon class="cls-5" points="49.01 171.51 51.5 175.83 53.99 171.51 49.01 171.51"/><line class="cls-4" x1="51.5" y1="245.83" x2="51.5" y2="259.24"/><polygon class="cls-5" points="49.01 258.51 51.5 262.83 53.99 258.51 49.01 258.51"/><line class="cls-4" x1="51.5" y1="331.33" x2="51.5" y2="346.74"/><polygon class="cls-5" points="49.01 346.01 51.5 350.33 53.99 346.01 49.01 346.01"/><polyline class="cls-4" points="165 69.67 77.67 69.67 77.67 82.08"/><polygon class="cls-5" points="75.17 81.35 77.67 85.67 80.16 81.35 75.17 81.35"/><line class="cls-4" x1="226" y1="123.67" x2="226" y2="244.74"/><polygon class="cls-5" points="223.5 244.01 226 248.33 228.5 244.01 223.5 244.01"/><polyline class="cls-4" points="111.67 118.67 163.33 118.67 163.33 158.08"/><polygon class="cls-5" points="160.84 157.35 163.33 161.67 165.83 157.35 160.84 157.35"/><line class="cls-4" x1="111.67" y1="227.33" x2="220.08" y2="227.33"/><polygon class="cls-5" points="219.35 229.83 223.67 227.33 219.35 224.84 219.35 229.83"/><polyline class="cls-4" points="111.33 316 226.67 316 226.67 354.08"/><polygon class="cls-5" points="224.17 353.35 226.67 357.67 229.16 353.35 224.17 353.35"/><rect class="cls-5" x="42.5" y="67.58" width="18" height="12"/><text class="cls-6" transform="translate(46.35 75.85)">YES</text><rect class="cls-5" x="42.5" y="155.83" width="18" height="12"/><text class="cls-6" transform="translate(46.35 164.1)">YES</text><rect class="cls-5" x="43.26" y="244.58" width="16.13" height="12"/><text class="cls-6" transform="translate(46.78 252.94)">NO</text><rect class="cls-5" x="160.27" y="24.08" width="16.13" height="12"/><text class="cls-6" transform="translate(163.79 32.44)">NO</text><rect class="cls-5" x="217.26" y="138" width="16.13" height="12"/><text class="cls-6" transform="translate(220.78 146.35)">NO</text><rect class="cls-5" x="128.94" y="113.33" width="16.13" height="12"/><text class="cls-6" transform="translate(132.46 121.69)">NO</text><rect class="cls-5" x="160.44" y="310.33" width="16.13" height="12"/><text class="cls-6" transform="translate(163.96 318.69)">NO</text><rect class="cls-5" x="42.46" y="331.38" width="18" height="12"/><text class="cls-6" transform="translate(46.31 339.64)">YES</text><rect class="cls-5" x="157.67" y="220.88" width="18" height="12"/><text class="cls-6" transform="translate(161.52 229.14)">YES</text><rect class="cls-5" x="112.33" y="63.88" width="18" height="12"/><text class="cls-6" transform="translate(116.19 72.14)">YES</text><rect class="cls-1" width="108.33" height="64.67"/><text class="cls-2" transform="translate(13.99 23.27)">Will Free Software <tspan x="-0.42" y="12">end up in the final </tspan><tspan x="20.24" y="24">product?</tspan></text></svg>