<svg id="Layer_2" data-name="Layer 2" xmlns="http://www.w3.org/2000/svg" viewBox="0 0 277.06 416.33"><defs><style>.cls-1{fill:#9d9fa2;}.cls-2{font-size:10px;}.cls-2,.cls-6{fill:#fff;font-family:OpenSans-Light, Open Sans;}.cls-3{fill:#636466;}.cls-4{fill:none;stroke:#231f20;stroke-miterlimit:10;stroke-width:1px;}.cls-5{fill:#231f20;}.cls-6{font-size:6.11px;}</style></defs><title>flowchart-4</title><rect class="cls-1" x="1.4" y="216.83" width="99.67" height="44"/><text class="cls-2" transform="translate(26.25 237.43)">Is the Code <tspan x="1.49" y="12">Complete?</tspan></text><rect class="cls-1" x="89.56" width="99.67" height="44"/><text class="cls-2" transform="translate(110.34 20.6)">Written Offer<tspan x="7.36" y="12">Provided?</tspan></text><rect class="cls-1" x="128.06" y="288.83" width="56.33" height="44"/><text class="cls-2" transform="translate(150.1 314.43)">Fix</text><rect class="cls-1" x="177.4" y="74.5" width="99.67" height="44"/><text class="cls-2" transform="translate(192.74 95.1)">Provide Written <tspan x="23.31" y="12">Offer</tspan></text><rect class="cls-1" x="2.23" y="74.5" width="99.67" height="44"/><text class="cls-2" transform="translate(24.73 95.1)">License Text <tspan x="5.95" y="12">Supplied?</tspan></text><rect class="cls-1" x="89.56" y="145.33" width="99.67" height="44"/><text class="cls-2" transform="translate(104.65 165.93)">Provide License<tspan x="25.55" y="12">Text</tspan></text><rect class="cls-3" x="1.73" y="360.33" width="85.87" height="56"/><text class="cls-2" transform="translate(31.31 391.6)">Done!</text><polyline class="cls-4" points="86.4 20 50.73 20 50.73 67.74"/><polygon class="cls-5" points="48.24 67.01 50.73 71.33 53.23 67.01 48.24 67.01"/><polyline class="cls-4" points="192.73 20 228.4 20 228.4 67.74"/><polygon class="cls-5" points="225.9 67.01 228.4 71.33 230.89 67.01 225.9 67.01"/><rect class="cls-5" x="41.56" y="36.5" width="18" height="12"/><text class="cls-6" transform="translate(45.42 44.77)">YES</text><rect class="cls-5" x="220.33" y="36.5" width="16.13" height="12"/><text class="cls-6" transform="translate(223.86 44.85)">NO</text><line class="cls-4" x1="174.48" y1="96" x2="108.4" y2="96"/><polygon class="cls-5" points="109.13 93.5 104.81 96 109.13 98.5 109.13 93.5"/><line class="cls-4" x1="49.4" y1="121.33" x2="49.4" y2="210.74"/><polygon class="cls-5" points="46.9 210.01 49.4 214.33 51.89 210.01 46.9 210.01"/><line class="cls-4" x1="49.4" y1="264.83" x2="49.4" y2="354.24"/><polygon class="cls-5" points="46.9 353.51 49.4 357.83 51.89 353.51 46.9 353.51"/><polyline class="cls-4" points="70.4 120.33 70.4 167.83 83.81 167.83"/><polygon class="cls-5" points="83.08 170.33 87.4 167.83 83.08 165.34 83.08 170.33"/><polyline class="cls-4" points="104.4 241.83 155.9 241.83 155.9 282.24"/><polygon class="cls-5" points="153.4 281.51 155.9 285.83 158.39 281.51 153.4 281.51"/><polyline class="cls-4" points="126.4 311.33 72.9 311.33 72.9 266.42"/><polygon class="cls-5" points="75.39 267.15 72.9 262.83 70.4 267.15 75.39 267.15"/><rect class="cls-5" x="40.56" y="161.83" width="18" height="12"/><text class="cls-6" transform="translate(44.42 170.1)">YES</text><rect class="cls-5" x="40.56" y="305.33" width="18" height="12"/><text class="cls-6" transform="translate(44.42 313.6)">YES</text><rect class="cls-5" x="62.83" y="138.08" width="16.13" height="12"/><text class="cls-6" transform="translate(66.36 146.44)">NO</text><rect class="cls-5" x="147.83" y="256.08" width="16.13" height="12"/><text class="cls-6" transform="translate(151.36 264.44)">NO</text><polyline class="cls-4" points="141.9 192.33 141.9 232.33 107.49 232.33"/><polygon class="cls-5" points="108.22 229.84 103.9 232.33 108.22 234.83 108.22 229.84"/></svg>