<svg xmlns="http://www.w3.org/2000/svg" viewBox="0 0 277 416.33"><defs><style>.cls-1{fill:#9d9fa2;}.cls-2{font-size:10px;}.cls-2,.cls-7{fill:#fff;font-family:OpenSans-Light, Open Sans;}.cls-3{letter-spacing:-0.02em;}.cls-4{fill:#636466;}.cls-5{fill:none;stroke:#231f20;stroke-miterlimit:10;stroke-width:1px;}.cls-6{fill:#231f20;}.cls-7{font-size:6.11px;}</style></defs><title>flowchart-5</title><g id="Layer_2" data-name="Layer 2"><rect class="cls-1" x="89.17" width="99.67" height="44"/><text class="cls-2" transform="translate(109.54 24.6)">Linking Type?</text><rect class="cls-1" x="162.67" y="235.33" width="114.33" height="66"/><text class="cls-2" transform="translate(177.63 254.27)">Provide object files <tspan x="3.16" y="12">of non-LGPL files, </tspan><tspan x="-1.95" y="24">scripts to relink and </tspan><tspan class="cls-3"><tspan x="-2.29" y="36">source of LGPL code</tspan></tspan></text><rect class="cls-1" x="162.67" y="101.33" width="114.33" height="77.33"/><text class="cls-2" transform="translate(189.25 120.27)">Object files of <tspan x="-2.73" y="12">non-LGPL files, </tspan><tspan x="-4.78" y="24">scripts to relink, </tspan><tspan x="-13.26" y="36">and source of LGPL </tspan><tspan x="-3.2" y="48">code available?</tspan></text><rect class="cls-1" y="118" width="99.67" height="44"/><text class="cls-2" transform="translate(21.92 138.6)">LGPL source <tspan x="-5.54" y="12">code available?</tspan></text><rect class="cls-1" y="248.33" width="99.67" height="44"/><text class="cls-2" transform="translate(20.25 268.93)">Provide LGPL <tspan x="2.32" y="12">source code</tspan></text><rect class="cls-4" x="96.06" y="360.33" width="85.87" height="56"/><text class="cls-2" transform="translate(125.65 391.6)">Done!</text><line class="cls-5" x1="47.67" y1="164.67" x2="47.67" y2="241.08"/><polygon class="cls-6" points="45.17 240.35 47.67 244.67 50.16 240.35 45.17 240.35"/><rect class="cls-6" x="39.6" y="199.67" width="16.13" height="12"/><text class="cls-7" transform="translate(43.13 208.02)">NO</text><text x="1" y="-34.67"></text><polyline class="cls-5" points="86 20 50.33 20 50.33 110.41"/><polygon class="cls-6" points="47.84 109.68 50.33 114 52.83 109.68 47.84 109.68"/><polyline class="cls-5" points="192.33 20 228 20 228 94.41"/><polygon class="cls-6" points="225.5 93.68 228 98 230.5 93.68 225.5 93.68"/><rect class="cls-6" x="32.17" y="50.5" width="37.33" height="12"/><text class="cls-7" transform="translate(37.72 58.77)">DYNAMIC</text><rect class="cls-6" x="213.94" y="50.5" width="28.46" height="12"/><text class="cls-7" transform="translate(218.63 58.85)">STATIC</text><polyline class="cls-5" points="47.33 295.33 47.33 390.67 89.41 390.67"/><polygon class="cls-6" points="88.68 393.16 93 390.67 88.68 388.17 88.68 393.16"/><polyline class="cls-5" points="230.67 304.33 230.67 390.67 188.59 390.67"/><polygon class="cls-6" points="189.32 388.17 185 390.67 189.32 393.16 189.32 388.17"/><polyline class="cls-5" points="102.33 136.67 115.67 136.67 115.67 353.74"/><polygon class="cls-6" points="113.17 353.01 115.67 357.33 118.16 353.01 113.17 353.01"/><polyline class="cls-5" points="160 136.67 146.67 136.67 146.67 353.74"/><polygon class="cls-6" points="144.17 353.01 146.67 357.33 149.16 353.01 144.17 353.01"/><rect class="cls-6" x="107.17" y="241" width="18" height="12"/><text class="cls-7" transform="translate(111.02 249.27)">YES</text><rect class="cls-6" x="137.17" y="241" width="18" height="12"/><text class="cls-7" transform="translate(141.02 249.27)">YES</text></g><g id="Layer_1" data-name="Layer 1"><line class="cls-5" x1="219.83" y1="181.67" x2="219.83" y2="228.41"/><polygon class="cls-6" points="217.34 227.68 219.83 232 222.33 227.68 217.34 227.68"/><rect class="cls-6" x="211.77" y="199.67" width="16.13" height="12"/><text class="cls-7" transform="translate(215.29 208.02)">NO</text></g></svg>