<svg id="Layer_1" data-name="Layer 1" xmlns="http://www.w3.org/2000/svg" viewBox="0 0 277.4 416.33"><defs><style>.cls-1{fill:#9d9fa2;}.cls-2{font-size:10px;}.cls-2,.cls-6{fill:#fff;font-family:OpenSans-Light, Open Sans;}.cls-3{fill:#636466;}.cls-4{fill:none;stroke:#231f20;stroke-miterlimit:10;stroke-width:1px;}.cls-5{fill:#231f20;}.cls-6{font-size:6.11px;}</style></defs><title>flowchart-2</title><rect class="cls-1" x="89.56" width="99.67" height="44"/><text class="cls-2" transform="translate(105.44 20.6)">Code Delivered <tspan x="2.9" y="12">With Product?</tspan></text><rect class="cls-1" x="1.4" y="72.5" width="99.67" height="44"/><text class="cls-2" transform="translate(26.25 93.1)">Is the Code <tspan x="1.49" y="12">Complete?</tspan></text><rect class="cls-1" x="177.73" y="72.5" width="99.67" height="44"/><text class="cls-2" transform="translate(198.51 93.1)">Written Offer<tspan x="7.68" y="12">Supplied?</tspan></text><rect class="cls-1" x="33.73" y="222.17" width="56.33" height="44"/><text class="cls-2" transform="translate(55.77 247.77)">Fix</text><rect class="cls-1" x="177.73" y="216.17" width="99.67" height="44"/><text class="cls-2" transform="translate(193.07 236.77)">Provide Written <tspan x="23.31" y="12">Offer</tspan></text><rect class="cls-1" x="89.56" y="144.17" width="99.67" height="44"/><text class="cls-2" transform="translate(112.06 164.77)">License Text <tspan x="5.95" y="12">Supplied?</tspan></text><rect class="cls-1" x="86.23" y="288.67" width="99.67" height="44"/><text class="cls-2" transform="translate(101.31 309.27)">Provide License<tspan x="25.55" y="12">Text</tspan></text><rect class="cls-3" x="1.73" y="360.33" width="85.87" height="56"/><text class="cls-2" transform="translate(31.31 391.6)">Done!</text><line class="cls-4" x1="233.79" y1="120" x2="233.79" y2="209.08"/><polygon class="cls-5" points="231.3 208.35 233.79 212.67 236.29 208.35 231.3 208.35"/><text x="1.4" y="-34.67"></text><text x="1.4" y="-34.67"></text><polyline class="cls-4" points="86.4 20 50.73 20 50.73 65.74"/><polygon class="cls-5" points="48.24 65.01 50.73 69.33 53.23 65.01 48.24 65.01"/><polyline class="cls-4" points="192.73 20 228.4 20 228.4 65.74"/><polygon class="cls-5" points="225.9 65.01 228.4 69.33 230.89 65.01 225.9 65.01"/><polyline class="cls-4" points="196.32 165.33 221.4 165.33 221.4 120"/><polygon class="cls-5" points="197.05 167.83 192.73 165.33 197.05 162.84 197.05 167.83"/><rect class="cls-5" x="41.56" y="36.5" width="18" height="12"/><text class="cls-6" transform="translate(45.42 44.77)">YES</text><rect class="cls-5" x="212.4" y="136.33" width="18" height="12"/><text class="cls-6" transform="translate(216.25 144.6)">YES</text><polyline class="cls-4" points="85.73 165.33 76.06 165.33 76.06 123.59"/><polygon class="cls-5" points="78.56 124.32 76.06 120 73.57 124.32 78.56 124.32"/><rect class="cls-5" x="67.4" y="136.33" width="18" height="12"/><text class="cls-6" transform="translate(71.25 144.6)">YES</text><rect class="cls-5" x="220.33" y="36.5" width="16.13" height="12"/><text class="cls-6" transform="translate(223.86 44.85)">NO</text><rect class="cls-5" x="225.33" y="161.17" width="16.13" height="12"/><text class="cls-6" transform="translate(228.86 169.52)">NO</text><rect class="cls-5" x="40.67" y="163.17" width="16.13" height="12"/><text class="cls-6" transform="translate(44.19 171.52)">NO</text><line class="cls-4" x1="139.79" y1="191.67" x2="139.79" y2="281.74"/><polygon class="cls-5" points="137.3 281.01 139.79 285.33 142.29 281.01 137.3 281.01"/><rect class="cls-5" x="131.33" y="233.83" width="16.13" height="12"/><text class="cls-6" transform="translate(134.86 242.19)">NO</text><polyline class="cls-4" points="113.73 285 113.73 200.67 63.06 200.67 63.06 124.26"/><polygon class="cls-5" points="65.56 124.99 63.06 120.67 60.57 124.99 65.56 124.99"/><line class="cls-4" x1="10.4" y1="119.33" x2="10.4" y2="353.74"/><polygon class="cls-5" points="7.9 353.01 10.4 357.33 12.89 353.01 7.9 353.01"/><line class="cls-4" x1="48.73" y1="119.33" x2="48.73" y2="215.41"/><polygon class="cls-5" points="46.24 214.68 48.73 219 51.23 214.68 46.24 214.68"/><rect class="cls-5" x="1.4" y="232.33" width="18" height="12"/><text class="cls-6" transform="translate(5.25 240.6)">YES</text><line class="cls-4" x1="34.9" y1="218.83" x2="34.9" y2="122.92"/><polygon class="cls-5" points="37.39 123.65 34.9 119.33 32.4 123.65 37.39 123.65"/><polyline class="cls-4" points="175.9 238.33 161.9 238.33 161.9 195.42"/><polygon class="cls-5" points="164.39 196.15 161.9 191.83 159.4 196.15 164.39 196.15"/></svg>